<svg version="1.2" xmlns="http://www.w3.org/2000/svg" viewBox="0 0 960 960" width="960" height="960"><style>.a{fill:#fff}</style><path class="a" d="m893.2 949.6l-223-223.4q-49 38.1-107.6 59.5-58.9 21.4-125.2 21.4-107 0-192.8-52.3-86.2-52.1-136.2-137.8h116.5q40.5 44 94.3 69.6 54 25.6 118.2 25.6 118.4 0 201.8-83.2 83.1-83.2 83.1-202 0-118.7-83.1-201.9-83.4-82.8-201.8-82.8-111.7 0-192.8 75.1-81.8 75.4-91.3 185.7h-94.9q9.5-150.7 118.2-253.2 108.7-102.9 260.8-102.9 158.8 0 269.2 110.3 110.6 110.5 110.6 269.7 0 66.3-21.4 125.4-21.2 58.6-59.1 107.5l222.8 223.4zm-506.7-332.6l-75-247.3-61.6 175.9h-239.8v-71.3h190l78.4-225.7h71l72.4 242.2 51.1-159h71.3l71.2 142.5h35.4v71.3h-79.4l-55.5-111.5-59.6 182.9z"/></svg>