<svg version="1.2" xmlns="http://www.w3.org/2000/svg" viewBox="0 0 450 450" width="450" height="450"><style>.a{fill:#fff}</style><path class="a" d="m418.7 445.1l-104.5-104.7q-23 17.9-50.5 27.9-27.6 10-58.7 10-50.1 0-90.3-24.5-40.4-24.4-63.9-64.6h54.6q19 20.6 44.2 32.6 25.3 12 55.4 12 55.5 0 94.6-39 39-39 39-94.6 0-55.7-39-94.7-39.1-38.8-94.6-38.8-52.3 0-90.3 35.2-38.4 35.3-42.8 87.1h-44.5q4.4-70.7 55.4-118.7 50.9-48.3 122.2-48.3 74.5 0 126.2 51.7 51.9 51.8 51.9 126.5 0 31-10.1 58.7-9.9 27.5-27.7 50.4l104.5 104.7zm-237.5-155.9l-35.2-115.9-28.9 82.5h-112.4v-33.5h89.1l36.7-105.7h33.3l33.9 113.5 24-74.5h33.4l33.4 66.7h16.6v33.5h-37.2l-26-52.3-28 85.7z"/></svg>