<svg version="1.2" xmlns="http://www.w3.org/2000/svg" viewBox="0 0 350 350" width="350" height="350"><style>.a{fill:#fff}</style><path class="a" d="m325.6 346.2l-81.3-81.4q-17.8 13.9-39.2 21.7-21.5 7.8-45.6 7.8-39 0-70.3-19.1-31.4-19-49.7-50.3h42.5q14.8 16.1 34.4 25.4 19.7 9.4 43.1 9.4 43.1 0 73.5-30.4 30.3-30.3 30.3-73.6 0-43.3-30.3-73.6-30.4-30.2-73.5-30.2-40.8 0-70.3 27.4-29.8 27.5-33.3 67.7h-34.6q3.5-55 43.1-92.3 39.6-37.6 95.1-37.6 57.9 0 98.1 40.2 40.3 40.3 40.3 98.4 0 24.1-7.8 45.7-7.7 21.4-21.5 39.2l81.2 81.4zm-184.7-121.2l-27.4-90.2-22.4 64.1h-87.4v-26h69.2l28.6-82.2h25.9l26.4 88.3 18.6-58h26l26 51.9h12.9v26h-29l-20.2-40.6-21.7 66.7z"/></svg>