<svg version="1.2" xmlns="http://www.w3.org/2000/svg" viewBox="0 0 960 960" width="960" height="960"><style>.a{fill:#fff}</style><path class="a" d="m673 693.3l-105.3-105.5q-23.1 18-50.8 28.1-27.8 10.1-59.1 10.1-50.5 0-91-24.7-40.7-24.6-64.3-65.1h55q19.1 20.8 44.5 32.9 25.5 12.1 55.8 12.1 55.9 0 95.3-39.3 39.2-39.3 39.2-95.4 0-56.1-39.2-95.4-39.4-39.1-95.3-39.1-52.7 0-91 35.5-38.6 35.6-43.1 87.7h-44.8q4.5-71.2 55.8-119.6 51.3-48.6 123.1-48.6 75 0 127.1 52.1 52.2 52.2 52.2 127.4 0 31.3-10.1 59.2-10 27.7-27.9 50.8l105.2 105.5zm-239.2-157.1l-35.4-116.8-29.1 83.1h-113.2v-33.7h89.7l37-106.6h33.5l34.2 114.4 24.1-75.1h33.7l33.6 67.3h16.7v33.7h-37.5l-26.2-52.7-28.1 86.4z"/></svg>